<svg xmlns="http://www.w3.org/2000/svg" viewBox="0 0 24 24">
  <mask id="m" width="24" height="23" x="0" y="1" maskUnits="userSpaceOnUse">
    <path d="M21.751 22.607c1.34 1.005 3.35.335 1.508-1.508C17.73 15.74 18.904 1 12.037 1 5.17 1 6.342 15.74.815 21.1c-2.01 2.009.167 2.511 1.507 1.506 5.192-3.517 4.857-9.714 9.715-9.714 4.857 0 4.522 6.197 9.714 9.715z" fill="#fff"/>
  </mask>
  <g mask="url(#m)">
    <circle cx="6.5" cy="3.5" r="8.5" fill="#FFE432"/>
    <circle cx="20" cy="4" r="9" fill="#FC413D"/>
    <circle cx="3" cy="12" r="10" fill="#00B95C"/>
    <circle cx="7" cy="15" r="9" fill="#00B95C"/>
    <circle cx="15" cy="26" r="9" fill="#3186FF"/>
    <circle cx="9" cy="-2" r="9" fill="#FBBC04"/>
    <circle cx="3" cy="35" r="11" fill="#3186FF"/>
  </g>
</svg>
